<svg version="1.2" xmlns="http://www.w3.org/2000/svg" viewBox="0 0 1120 1120" width="1120" height="1120">
	<title>Leonardo_Phoenix_Design_a_friendly_modern_logo_for_a_universit_3</title>
	<style>
		.s0 { fill: #ffffff } 
		.s1 { fill: #a31e32 } 
		.s2 { fill: #273351 } 
		.s3 { fill: #fafcf9 } 
		.s4 { fill: #d7dfd3 } 
		.s5 { fill: #394b59 } 
		.s6 { fill: #9c5450 } 
		.s7 { fill: #081f48 } 
	</style>
	<g id="Background">
		<path id="Path 0" class="s0" d="m0 560v560h1120v-1120h-1120z"/>
		<path id="Path 1" fill-rule="evenodd" class="s1" d="m337 316.6c1.9 0.2 4.2 1.1 5 1.9 1.3 1.4 1.6 18.1 2 134.2 0.5 123.2 0.6 132.7 2.2 133.7 1.3 0.9 4.2 0.3 13-2.7 6.2-2.1 15.8-5.7 21.3-8.1 5.5-2.4 16.3-7.4 24-11 7.7-3.7 18.7-8.8 24.5-11.3 5.8-2.5 15-6 20.5-7.8 5.5-1.9 14.7-4.4 20.5-5.6 8-1.7 14-2.2 25.5-2.3 11.5 0 16.6 0.4 22 1.8 3.9 1 9.7 3.1 13 4.7 3.3 1.5 8 4.3 10.4 6.1 2.4 1.8 6.5 6.4 9.1 10.3 2.6 3.9 6.1 8.2 7.8 9.8 1.8 1.5 3.9 2.7 4.7 2.7 0.8 0 2.7-0.6 4.2-1.4 1.6-0.8 5.3-4.4 8.3-8.2 3-3.7 7.7-8.4 10.5-10.5 2.7-2 7.9-5.1 11.5-6.9 3.6-1.8 10.1-4.1 14.5-5.3 6.1-1.5 11.4-2 22-2.1 8 0 16.6 0.5 20 1.3 3.3 0.7 9.6 2.3 14 3.6 4.4 1.2 13 4.3 19 6.7 6 2.5 20.9 9.5 33 15.5 12.1 6.1 27.4 13.2 34 15.8 6.6 2.6 13.7 5.1 15.7 5.4 3.4 0.5 3.8 0.3 4.7-2.2 0.8-1.8 1.1-44.4 1.1-133.5-0.1-124.1 0-130.8 1.7-132.4 1-0.9 2.9-1.9 4.3-2.3 1.4-0.4 4.2-0.2 6.2 0.4 2.2 0.6 4.5 2.2 5.5 3.8 1.6 2.3 1.8 5.8 2.1 26.3 0.1 12.9-0.1 76.3-1.3 258.2l-3 2.5c-2.8 2.4-3.5 2.5-10.5 2-4.1-0.2-10.4-1.5-14-2.7-3.6-1.2-11.5-4.1-17.5-6.5-6-2.4-21.1-9.1-33.5-14.8-12.4-5.7-27.8-12.5-34.3-15.1-6.4-2.5-16.3-5.7-22-7.1-5.6-1.4-14.2-2.8-19.2-3.1-6.8-0.5-10.6-0.2-15.5 1-3.6 0.9-8.9 2.9-11.9 4.4-2.9 1.5-9.7 6.6-15 11.5-5.8 5.3-12.1 10-16.1 12-5.6 2.8-7.8 3.2-16 3.6-7.2 0.3-10.8-0.1-15-1.4-3-1-7.1-2.8-9-4-1.9-1.2-7.5-5.9-12.5-10.5-6.2-5.7-11.2-9.4-16-11.6-3.9-1.9-10.1-3.9-14-4.5-4.2-0.7-11.1-0.9-17-0.6-5.5 0.4-14.3 1.8-19.5 3.1-5.2 1.4-14.4 4.4-20.5 6.6-6.1 2.3-17.5 7.1-25.5 10.7-8 3.6-21.9 9.6-31 13.5-9.1 3.9-21.9 8.8-28.5 11-6.8 2.3-15 4.2-19 4.6-6.9 0.6-7.1 0.5-13.5-5.8l0.5-281.8 2.3-2.6c1.3-1.4 3.3-2.7 4.5-3 1.2-0.2 3.8-0.2 5.7 0zm301.5 20.5c1.1-0.1 9.9 3.3 19.5 7.5 9.6 4.2 31.2 13.7 78.5 34.3l0.2 77.5c0.3 73.5 0.2 77.6-1.5 77.2-0.9-0.3-5.3-1.4-9.7-2.5-4.4-1.1-13.9-3.8-21-6.1-7.1-2.2-17.3-5.4-22.5-7.1-5.2-1.6-14-3.9-19.5-5.1-7.4-1.5-13.6-2.1-24-2.1-10.9 0-15.7 0.5-21.5 2-4.1 1.1-9.3 3-11.5 4.1-2.2 1.1-6.9 4.2-10.4 6.8-3.8 3-7.9 7.3-10.3 10.9-2.1 3.3-3.9 6.6-3.8 7.3 0 0.6-0.9 2.7-4 7.7v-55c0-52.3 0.1-54.9 1.8-52.9 0.9 1.2 2.5 2.4 3.4 2.8 1 0.3 5.1-0.6 9-2 4-1.5 10.2-2.9 13.8-3.2 3.6-0.2 8.9 0.1 12 0.8 3 0.7 9.3 3.2 22.5 10.2l9-4.5c5-2.5 11.5-5 14.5-5.7 3.1-0.7 8.7-1.1 13-0.8 5 0.3 9.9 1.4 14.5 3.3 3.9 1.5 7.3 3.3 7.7 3.9 0.5 0.8 1.6 0.8 4 0.1 2.7-0.9 3.4-1.7 4.5-8l0.2 4c0.1 2.2 0.4 6.9 1.3 17h5.9c3.3 0 5.9-0.2 5.9-0.5 0-0.3-1.1-7.9-2.5-17-1.9-12.9-2.5-20.5-2.5-53.5l5.2-2.7c4.9-2.5 5.1-2.7 2.3-2.7-1.6 0-3.7 0.3-4.5 0.8-1 0.7-2.3 0.4-4-0.8-1.4-1-4.9-2.7-7.8-3.9q-5.2-2.2-11.5-2.2c-3.4 0-8.6 0.4-11.6 0.8-3 0.4-5.7 1.3-6 2-0.3 0.7-0.4 1.4-0.1 1.7 0.3 0.2 4.8 1.2 10 2.1 5.2 0.9 11.7 2.6 14.3 3.8 3.8 1.7 4.5 2.3 3.5 3.3-0.7 0.6-13.2 6.5-27.8 13.1-14.6 6.6-29 13.2-37.5 17.4l-13-6.2c-7.1-3.4-20.8-9.5-30.3-13.6-9.4-4.1-18.4-8.3-20-9.3-1.5-1.1-9.8-5-18.5-8.8-8.6-3.7-15.6-6.9-15.5-6.9 0.2-0.1 12.9-5.3 28.3-11.5 15.4-6.2 36.5-15 47-19.5 10.5-4.5 19.9-8.3 21-8.3zm-374.5 292.9h21v122h-9.5c-5.7 0-9.5-0.4-9.5-1 0-0.5-0.4-2.1-2-6l-4.3 2.9c-2.3 1.5-6 3.4-8.2 4.1-2.5 0.8-7.5 1.1-13.5 0.9-7.7-0.4-10.6-0.9-15-3.1-3-1.4-6.9-4.3-8.7-6.4-1.7-2.2-4.3-6.4-5.7-9.4-1.4-3-3-8.9-3.7-13-0.6-4.1-0.9-10.6-0.5-14.5 0.3-3.8 1.5-9.7 2.7-13 1.1-3.3 3.6-8.1 5.5-10.7 1.9-2.7 5.5-6.2 8.1-8 2.7-1.7 7.3-4.1 10.3-5.2 4.3-1.6 7.7-2 15.5-1.8 5.5 0.1 11.6 0.3 17 0.7zm-109 3c26.2 0 34.1 0.3 34.5 1.3 0.3 0.6 0.6 5.3 1 19.2l-47 1-0.3 13c-0.2 9.6 0.1 13.2 1 13.8 0.7 0.4 9.8 0.6 39.3 0.2l0.5 19.5-40.5 0.5v30l46.5 0.5v20h-68.5l-0.8-3.2c-0.4-1.8-0.8-27.9-0.8-58 0.1-30.2 0.3-55.5 0.6-56.3 0.5-1.3 5.3-1.5 34.5-1.5zm617.5 0.4c21.6 0.3 24.6 0.5 31 2.5 3.8 1.3 8.5 3.3 10.5 4.5 1.9 1.3 4.8 3.6 6.3 5.2 1.6 1.6 3.8 4.8 4.8 7.2 1 2.3 2.2 7.2 2.6 11 0.4 3.7 0.5 9.6 0.1 13.2-0.3 3.6-1.7 8.9-3.1 12-1.4 3-4.4 7.2-6.7 9.3-2.2 2-6 4.7-8.3 5.8-2.3 1.2-6.3 2.8-8.7 3.6-2.5 0.8-11.1 1.8-33.5 2.8l-0.5 40.5h-22.5l-0.8-3.2c-0.4-1.8-0.8-28.2-0.7-113.8l2.7-0.4c1.5-0.2 13.6-0.3 26.8-0.2zm122.2 33.2c0.7 0.2 1.9 0.4 2.8 0.4 1.2 0 1.5 1.9 1.5 21.5l-7.3-0.3c-6.3-0.3-7.9 0-12.7 2.5-4.5 2.3-6 3.7-8 7.8-2.5 4.8-2.5 5.5-3 52.5h-21l-0.4-32.7c-0.3-30-0.5-33.4-2.5-40.3-1.2-4.1-2.2-8.1-2.2-8.7 0.1-1 2.8-1.2 11-1 7.4 0.1 11.4 0.6 12.3 1.5 0.7 0.7 1.4 3.8 1.5 6.8 0.1 3 0.7 5.4 1.3 5.4 0.5 0 2.4-1.9 4.2-4.2 1.8-2.4 3.9-4.9 4.7-5.6 0.9-0.7 2.9-2 4.6-2.9 1.6-0.8 5-1.9 7.5-2.3 2.4-0.4 5-0.6 5.7-0.4zm64.8 0.1c3.3 0.3 8.9 1.3 12.5 2.3 3.5 1.1 8.5 3.2 11 4.8 2.4 1.7 5.8 4.7 7.4 6.8 1.6 2.2 4.1 6.4 5.5 9.4 2.1 4.6 2.6 7.4 2.9 16.5 0.3 9.3 0 12-1.8 17.5-1.3 3.6-3.9 8.9-5.9 11.9-2.3 3.4-5.9 6.8-9.6 9.3-3.3 2.1-8.3 4.6-11 5.4-2.8 0.8-8.2 1.8-12 2.1-3.9 0.3-10.1 0.1-13.8-0.6-3.7-0.6-9.1-2.1-12-3.4-2.9-1.3-7.3-4.1-9.7-6.4-2.5-2.2-6-6.9-7.8-10.4-1.8-3.5-3.7-8.9-4.3-11.9-0.5-3-1-8.2-1-11.5 0-3.3 0.8-8.7 1.6-12 0.9-3.3 2.7-7.8 3.9-10 1.3-2.2 4.6-6 7.2-8.5 2.7-2.4 7.6-5.7 10.9-7.2 3.5-1.7 8.9-3.2 13-3.7 3.8-0.4 9.7-0.6 13-0.4zm-652.5 1.3h22l-0.7 24.3c-0.4 13.3-0.3 26.9 0.1 30.2 0.6 4.5 1.5 6.7 3.4 8.6 1.5 1.5 4 3 5.7 3.4 1.7 0.5 5.2 0.2 8.5-0.5 3.1-0.8 6.8-2.6 12-7v-59h22v84h-19v-4c0-2.2-0.5-4.2-1-4.5-0.6-0.3-2.7 0.8-4.8 2.4-2.1 1.6-5.5 3.7-7.7 4.7-2.9 1.3-6.6 1.8-13 1.8-7.6 0.1-9.9-0.3-14.5-2.5-3.4-1.5-6.5-3.9-8-6-1.3-1.8-3-5.4-3.8-7.9-0.9-3.3-1.3-13-1.3-36.2z"/>
		<path id="Path 2" fill-rule="evenodd" class="s2" d="m505 276.6c6.3 0.3 14.4 1.1 18 1.8 3.6 0.8 9.4 2.5 13 4 3.6 1.4 8.9 4.3 11.9 6.4 3 2 7.1 5.9 9.2 8.7 2.1 2.7 4.5 6.7 5.3 8.7 0.9 2.1 1.6 4 1.6 4.3 0 0.3-1.9-0.8-4.3-2.4-2.3-1.6-7.6-4.5-11.7-6.4-4.1-1.9-10.3-4.4-13.8-5.5-3.4-1.2-9.5-2.7-13.4-3.3-4.4-0.7-13.3-0.9-22.3-0.6-10.9 0.4-17.9 1.2-25.5 3-5.8 1.4-16.4 4.5-23.5 7-7.1 2.5-19.5 6.8-27.5 9.7-8 2.8-20.1 6.7-27 8.6-6.9 1.9-12.8 3.8-13.2 4.2-0.4 0.4-1 47.1-1.4 103.7-0.5 86.2-0.4 103.3 0.7 104.8 1.3 1.7 1.8 1.7 7.9 0.3 3.6-0.8 18.4-5.3 33-10 14.6-4.7 29.4-9.2 33-10.1 3.6-0.9 10.1-2.3 14.5-3.1 4.4-0.8 12.7-1.4 18.5-1.4 6.8 0 13.3 0.7 18.5 1.9 4.4 1.1 10.5 3 13.5 4.3 3 1.3 7.2 3.7 9.3 5.4 2.4 1.9 3.8 3.7 3.7 5.1 0 1.3-0.3 2.5-0.8 2.7-0.4 0.3-3.4-0.6-6.7-1.9-3.3-1.3-9.5-3.1-13.8-3.9-4.5-0.9-12.7-1.6-19.7-1.6q-12 0-21.8 2c-5.3 1.1-14.9 3.7-21.2 5.9-6.3 2.2-18.1 6.4-26.3 9.5-8.1 3.1-19.5 6.9-25.4 8.6-6 1.6-16 3.8-22.3 4.9-6.3 1.1-11.6 1.9-11.6 1.8-0.1-0.1-0.5-54.9-1.6-243.2l4.9-0.8c2.6-0.5 10.2-2.1 16.8-3.7 6.6-1.7 19.2-5.4 28-8.4 8.8-3 21.2-7.2 27.5-9.5 6.3-2.2 16-5.1 21.5-6.5 5.5-1.3 13.4-2.9 17.5-3.5 4.1-0.6 9.3-1.3 11.5-1.5 2.2-0.2 9.2-0.2 15.5 0zm120 0.5c4.7 0 13 0.6 18.5 1.3 5.5 0.8 13.8 2.4 18.5 3.6 4.7 1.2 21.8 6.6 38 12 16.2 5.5 34.7 11.1 41 12.5 6.3 1.5 12 2.8 12.5 3 0.6 0.1 1.3 18.4 1.8 50.1 0.4 27.5 0.7 82.1 0.7 192.9l-9.8-1.3c-5.3-0.7-14.2-2.4-19.7-3.9-5.5-1.4-17-5.3-25.5-8.6-8.5-3.3-21.1-7.9-28-10.3-6.9-2.4-16-5.1-20.3-5.9-4.2-0.8-12.7-1.5-18.7-1.5-6 0-14.3 0.7-18.3 1.5-3.9 0.9-10.8 3.3-15.2 5.4-4.4 2.1-10.6 6.1-13.8 8.9-3.1 2.9-5.7 4.9-5.7 4.4-0.1-0.4 1.7-3.4 3.8-6.7 2.4-3.6 6.5-7.9 10.3-10.9 3.5-2.6 8.2-5.7 10.4-6.8 2.2-1.1 7.4-3 11.5-4.1 5.8-1.5 10.6-2 21.5-2 10.4 0 16.6 0.6 24 2.1 5.5 1.2 14.3 3.5 19.5 5.1 5.2 1.7 15.4 4.9 22.5 7.1 7.1 2.3 16.6 5 21 6.1 4.4 1.1 8.8 2.2 9.7 2.5 1.7 0.4 1.8-3.9 1.8-78.9 0-43.5 0-90.7 0-104.7-0.1-14-0.4-25.8-0.8-26.2-0.4-0.3-6.8-2.5-14.2-4.7-7.4-2.2-22.5-7.2-33.5-11.1-11-3.9-24.5-8.4-30-9.9-5.5-1.6-13.4-3.5-17.5-4.2-4.1-0.7-13.1-1.3-20-1.3-9.9 0-14.1 0.5-20.5 2.3-4.4 1.2-10.9 3.5-14.5 5-3.6 1.5-9.1 4.4-12.3 6.4-3.3 2.2-5.7 3.2-5.7 2.4 0-0.6 1.3-3.3 3-6 1.6-2.6 4.7-6.5 6.7-8.8 2.1-2.2 5.8-5.4 8.3-7 2.5-1.5 7.2-3.8 10.5-5 3.3-1.2 9.1-2.7 13-3.4 3.9-0.7 10.8-1.4 15.5-1.4zm80.8 114c0.9-0.1 1.2 5.1 1.1 23.1 0 12.8-0.3 25.1-0.7 27.3-0.6 3.3-1.2 4.1-4 5-2.4 0.7-3.5 0.7-4-0.1-0.4-0.6-3.8-2.4-7.7-3.9-4.6-1.9-9.5-3-14.5-3.3-4.3-0.3-9.9 0.1-13 0.8-3 0.7-9.5 3.2-23.5 10.2l-8.5-4.5c-4.7-2.5-11-5-14-5.7-3.1-0.7-8.4-1-12-0.8-3.6 0.3-9.8 1.7-13.7 3.2-5.3 1.9-7.9 2.4-9.5 1.7-1.3-0.5-2.8-1.9-3.5-3.2-0.7-1.5-1.4-9.9-1.7-21.4-0.3-10.5-0.2-20.6 0.9-26.2l20 8.7c11 4.7 25 11 42 19.2l8.5-4.1c4.7-2.3 19.3-9.1 32.5-15 13.2-6 24.6-11 25.3-11zm-202.9 237.9h21.1l0.1 28.2c0.1 15.6 0.2 31.2 0.4 34.8 0.2 3.6 0.3 13.5 0.4 22 0 15.1 0.1 15.6 2.6 18.2 1.9 2.2 3.4 2.8 10.5 2.8v8c0 6.7-0.3 8.1-1.7 8.7-1 0.5-6.1 0.8-11.3 0.8-7 0-10.4-0.5-13-1.7-2-1-4.5-3.5-8.5-10.3zm-100.9 4h23c16.5 0 25.1 0.4 30.7 1.5 4.7 0.9 10.2 2.9 14 5 4.2 2.4 7.2 4.9 9.1 7.7 1.5 2.4 3.3 5.5 4 7 0.6 1.6 1.6 5.8 2.2 9.5 0.7 4.8 0.7 8.8 0 13.5-0.6 3.8-2.3 9.4-3.9 12.5-1.6 3.2-4.6 7.4-6.8 9.3-2.1 2-6.3 4.7-9.3 6.2-3.1 1.4-7.8 3.1-10.5 3.7-2.8 0.7-10.4 1.5-29 2.6l-0.3 19.7c-0.1 10.9-0.3 19.8-0.5 19.8-0.1 0.1-5.3 0.3-22.7 1zm188.5 33.7c4.4 0.3 10 1.1 12.5 1.9 2.4 0.7 6.3 2.6 8.5 4.2 2.2 1.6 5.3 5.3 10 13.7l0.5 64.5h-9.3c-8.9 0.1-9.3 0-11.7-5l-6.8 3.2c-6.3 3.1-7.4 3.3-17.7 3.3-9.5 0-11.6-0.3-15.3-2.3-2.6-1.4-5.4-4-7.2-7-1.7-2.6-3.5-7.2-4.1-10.2-0.6-3-0.8-7.3-0.4-9.5 0.4-2.2 1.5-5.9 2.6-8.3 1.1-2.5 3.6-5.4 6.1-7.3 2.4-1.6 6.5-3.7 9.3-4.6 3.3-1 9.7-1.7 33-2.1l0.2-4.4c0.2-2.6-0.3-5.2-1.2-6.6-0.9-1.2-2.8-2.8-4.3-3.6-1.5-0.8-4.8-1.7-7.2-2.1-2.5-0.4-7.5-0.1-11 0.5-3.6 0.7-9 2.3-12 3.6-3.1 1.3-5.6 2.3-5.7 2.2-0.1-0.2-1.1-4.1-2.3-8.8-1.2-4.7-2-9-1.7-9.5 0.2-0.5 3.7-1.9 7.8-2.9 4-1.1 10.1-2.3 13.4-2.7 3.3-0.4 9.6-0.5 14-0.2zm55.7 0.3c1.2 0.1 5.6 0.5 9.8 1 4.2 0.5 7.8 1.5 8.2 2.2 0.4 0.7 0.7 2.3 0.7 3.5 0.1 1.3 0.5 2.5 1.1 2.8 0.5 0.3 2.4-0.7 4.2-2.1 1.8-1.5 5.1-3.6 7.3-4.7q4-2 12-2.5c5-0.3 9.4 0 12 0.8 2.2 0.7 5.7 2.4 7.7 3.7 2.7 1.7 4.7 4.2 10.3 15.8l0.5 63.5h-22l-0.5-57.9-3-3.1c-1.7-1.7-4.6-3.5-6.5-4-2.1-0.5-5.4-0.5-8 0-2.5 0.5-4.9 0.9-5.3 1-0.4 0-2.3 1.3-7.7 6v58h-21v-28.8c0-21.5-0.5-31.6-1.7-40.2-0.9-6.3-1.4-12.3-1-13.3 0.3-0.9 1.6-1.7 2.9-1.7zm358.3 124.5v6h-94.5c-93.7 0-94.5 0-94.8-2-0.2-1.1-0.1-2.6 0.2-3.3 0.4-1 19.9-1.2 189.1-0.7z"/>
		<path id="Path 3" class="s3" d="m710.3 427.7l-3.3 0.3 0.5 15.5c7.5 0.4 8.6 0.1 9.1-1.2 0.4-1 0.3-4.7-0.2-8.2-0.5-3.6-1.3-6.5-1.9-6.6-0.5-0.1-2.5 0-4.2 0.2z"/>
		<path id="Path 4" class="s4" d="m681.8 377.7c-2.1 0.2-4.1 1-4.5 1.8-0.5 0.8-0.6 1.7-0.3 2 0.3 0.2 4.8 1.2 10 2.1 5.2 0.9 11.6 2.5 14.3 3.5 2.6 1 4.5 2.3 4.2 2.9-0.3 0.6 0 1 0.5 1 0.6 0 1 6.8 1 18.5v18.5c3.9 0 5.7-0.2 6.5-0.5 1.3-0.4 1.5-3.5 1.5-19.7v-19.3c10.1-5.2 10.3-5.4 7.5-5.4-1.6 0-3.7 0.3-4.5 0.8-1 0.7-2.3 0.4-4-0.8-1.4-1-4.9-2.7-7.7-3.9-4.1-1.7-7.1-2.2-13-2-4.3 0.1-9.5 0.3-11.5 0.5zm34.2 65.4c-0.7 0.6-3.1 1-5.3 0.8l-3.9-0.4c0.9 9.3 1.2 12.9 1.2 14 0 1.8 0.7 2 6 2 4.7 0 6-0.3 5.9-1.5 0-0.8-0.6-4.8-1.3-8.8-1.1-5.8-1.6-7.1-2.6-6.1z"/>
		<path id="Path 5" class="s5" d="m533 525.5c0 0.8-0.2 2.1-0.5 2.8-0.3 0.6 0.9 2.1 2.7 3.2 1.8 1 5.2 3.9 7.5 6.2 2.4 2.4 4.3 4 4.3 3.5 0-0.4-1.6-3.2-3.6-6.2-2-3-4.8-6.7-6.2-8.3-1.5-1.5-3-2.7-3.4-2.7-0.5 0-0.8 0.7-0.8 1.5z"/>
		<path id="Path 6" class="s6" d="m118.5 791.7c-0.5 0.3-0.8 1.7-0.7 3 0.1 1.3 1.1 2.8 2.2 3.3 1.3 0.6 38 1 104 1 56.1 0 102.7-0.2 103.5-0.5 1-0.3 1.5-1.8 1.5-4v-3.5c-162.5 0-210 0.3-210.5 0.7z"/>
		<path id="Path 7" class="s0" d="m767.5 655.3c-0.3 1.2-0.4 9.6-0.3 18.7l0.3 16.5c7.8 0.5 13.4 0.2 17.5-0.4 5-0.7 8.7-1.9 11.3-3.6 2.1-1.4 4.5-4.3 5.7-6.7 1.1-2.4 2-6.1 2-8.3 0-2.2-0.9-5.8-1.8-8-1-2.2-3.2-5-4.8-6.3-1.6-1.2-5-2.7-7.7-3.2-2.6-0.6-8.5-1-13.2-1-8 0-8.5 0.1-9 2.3zm-341.5 16.7v18c19.2 0 21.2-0.3 25.8-2.5 4-1.9 5.7-3.4 7.3-6.7 1.7-3.4 2.1-5.7 1.8-10.5-0.3-4.2-1.1-7-2.5-9-1.1-1.5-4-3.8-6.5-5.1-3.8-1.9-6-2.2-15.2-2.2h-10.7zm-184 14.9c-1.4 0.4-4.1 1.6-6 2.8-2.2 1.3-4.5 4-6.3 7.4-2.4 4.7-2.7 6.5-2.7 14.4 0 6.5 0.6 10.1 1.8 13 1 2.2 3.2 5 4.8 6.3 1.6 1.3 4.7 2.8 6.9 3.3 2.2 0.6 6.5 0.8 9.5 0.5 3-0.3 7.1-1.4 9-2.4l3.5-1.7 0.5-42.5c-5.8-1.5-10-2-13-1.9-3 0-6.6 0.4-8 0.8zm704 0.2c-1.4 0.6-3.9 2-5.5 3.3-1.6 1.2-3.9 4-4.9 6.2-1 2.1-2.1 7-2.4 10.9-0.3 4.9 0 8.5 1.1 12 1 2.8 3.1 6.4 4.9 8.1 1.8 1.8 4.8 3.9 6.5 4.8 2 1 5.8 1.6 9.5 1.6 4.6 0 7.3-0.6 10.3-2.3 2.1-1.2 5.2-4 6.7-6.2 2-2.8 3.2-6.1 3.8-10.7 0.7-4.5 0.7-8.5 0-11.8-0.5-2.7-1.6-6.2-2.4-7.7-0.8-1.6-2.2-3.6-3.2-4.5-1.1-0.9-3.6-2.4-5.7-3.2-2.1-0.9-6.4-1.6-10-1.5-3.4 0-7.3 0.5-8.7 1zm-363.5 28.9c-2.8 0.5-6.1 1.7-7.4 2.7-1.3 1-2.8 3.2-3.4 4.8-0.6 2-0.6 4.2 0.2 6.8 0.7 2.5 2.1 4.2 4.1 5.2 1.6 0.8 4.7 1.5 6.7 1.5 2.1 0 5.6-0.5 7.8-1.1 2.2-0.6 5.2-2 6.7-3 2.6-1.8 2.8-2.3 2.8-9.4 0-6.5-0.2-7.5-1.8-7.5-0.9 0-3.7-0.2-6.2-0.4-2.5-0.3-6.8-0.1-9.5 0.4z"/>
		<path id="Path 8" class="s7" d="m635 373.3c-1.3 0.7-2.6 2.4-2.8 3.8-0.2 1.4 0.4 3 1.4 3.9 1.1 1 4.1 1.5 8.8 1.6 3.9 0.1 12.7 0.5 19.6 0.9 9.2 0.6 12.2 0.5 11.5-0.4-0.5-0.6-5.5-1.5-11-2.1-5.5-0.5-10.8-1-11.8-1-1.1 0-1.7-0.8-1.7-2.5 0-1.9-0.8-2.9-3.5-4-1.9-0.8-4.5-1.5-5.8-1.5-1.2 0-3.3 0.6-4.7 1.3z"/>
	</g>
	<path id="Manage Academic Plans &amp; Course P" class="s1" aria-label="Manage Academic Plans &amp; Course Programs"  d="m71.3 828q-1.6 0.1-2.4 0.4-0.7 0.3-1 1-0.2 0.8-0.2 2.5v22.3q0 1.7 0.2 2.5 0.3 0.8 1 1 0.8 0.3 2.4 0.4v0.9q-2.1-0.1-5.7-0.1-3.9 0-5.8 0.1v-0.9q1.7-0.1 2.4-0.4 0.7-0.2 1-1 0.3-0.8 0.3-2.5v-24.1l-10.9 29.1h-0.7l-11.3-29.2v23.8q0 1.7 0.2 2.6 0.4 0.8 1.2 1.2 0.9 0.4 2.7 0.5v0.9q-1.7-0.1-4.6-0.1-2.7 0-4.2 0.1v-0.9q1.6-0.1 2.3-0.5 0.8-0.4 1.1-1.2 0.2-0.9 0.2-2.6v-21.9q0-1.7-0.2-2.5-0.3-0.7-1.1-1-0.7-0.3-2.3-0.4v-0.9q1.5 0.2 4.2 0.2 2.3 0 3.8-0.2l9.9 26.1 9.7-25.9h2.1q3.6 0 5.7-0.2zm26.6 27.2q1.3 2.8 3.2 2.9v0.9q-1.8-0.1-4.9-0.1-3.8 0-5.7 0.1v-0.9q1.6-0.1 2.4-0.5 0.8-0.3 0.8-1.2 0-0.7-0.6-2.1l-2.3-5.1h-10.9l-1.6 3.4q-0.7 1.7-0.7 2.8 0 1.2 0.8 1.9 0.8 0.6 2.7 0.8v0.9q-1.4-0.1-4.1-0.1-2.8 0-3.9 0.1v-0.9q1.2-0.3 2-1.3 0.9-1.1 1.7-2.9l9.9-22.5h0.7zm-17.7-6.9h10.2l-5.1-11.4zm50-16.7v0.9q-1.6 0.1-2.4 0.5-0.7 0.4-1 1.3-0.3 0.8-0.3 2.5v22.4h-1l-18-24.9v19.4q0 1.8 0.3 2.7 0.3 0.8 1.1 1.2 0.9 0.4 2.7 0.5v0.9q-1.6-0.2-4.6-0.2-2.7 0-4.2 0.2v-0.9q1.6-0.1 2.3-0.5 0.8-0.4 1.1-1.2 0.3-0.9 0.3-2.7v-17.3q0-1.7-0.3-2.5-0.3-0.8-1.1-1-0.7-0.3-2.3-0.4v-0.9q1.5 0.1 4.2 0.1 2.4 0 4.1-0.1l14.4 20v-14.8q0-1.7-0.3-2.6-0.3-0.8-1.2-1.2-0.8-0.4-2.6-0.5v-0.9q1.6 0.1 4.6 0.1 2.7 0 4.2-0.1zm24.6 23.6q1.2 2.8 3.1 2.9v0.9q-1.8-0.2-4.8-0.2-3.9 0-5.7 0.2v-0.9q1.6-0.1 2.4-0.5 0.8-0.3 0.8-1.2 0-0.7-0.6-2.1l-2.3-5.1h-11l-1.5 3.3q-0.8 1.8-0.8 2.9 0 1.2 0.9 1.9 0.8 0.6 2.7 0.8v0.9q-1.4-0.2-4.1-0.2-2.8 0-4 0.2v-0.9q1.3-0.3 2.1-1.4 0.9-1.1 1.6-2.8l10-22.5h0.7zm-17.7-6.9h10.2l-5.1-11.5zm36-17.3q2.5 0 4 0.8 1.6 0.7 3.3 2.2 0.6 0.4 0.9 0.4 0.9 0 1.2-2.7h1q-0.2 2.5-0.2 9h-1q-0.4-1.7-0.9-3-0.5-1.3-1.4-2.3-1.5-1.7-3.1-2.6-1.6-0.9-3.9-0.9-2.7 0-4.7 1.6-2 1.6-3.1 4.7-1.1 3.1-1.1 7.2 0 6.9 2.6 10.1 2.5 3.3 7.5 3.3 1.9 0 3.4-0.4 0.9-0.2 1.1-0.6 0.3-0.4 0.3-1.1v-3.9q0-1.9-0.3-2.7-0.4-0.9-1.3-1.2-0.9-0.3-2.9-0.4v-0.9q2.4 0.1 6.3 0.1 3.1 0 4.7-0.1v0.9q-1 0.1-1.5 0.4-0.4 0.2-0.6 1-0.2 0.8-0.2 2.5v6.6h-0.9q-0.1-1-0.7-1-0.2 0-0.9 0.3-0.8 0.3-1 0.4-2.9 1-5.9 1-6.8 0-10.5-3.6-3.7-3.7-3.7-10.2 0-4.5 1.8-7.8 1.7-3.4 4.7-5.2 3-1.9 7-1.9zm37.9 22.7q0 2.4 0.3 5.3-2.9-0.1-9.9-0.1-8.3 0-12.6 0.1v-0.9q1.7-0.1 2.4-0.3 0.8-0.3 1-1.1 0.3-0.7 0.3-2.4v-17.9q0-1.7-0.3-2.4-0.2-0.8-1-1.1-0.7-0.2-2.4-0.3v-0.9q4.3 0.1 12.6 0.1 6.3 0 9-0.1-0.3 2.7-0.3 4.8 0 1.8 0.1 2.8h-1q-0.3-3.7-1.6-5.1-1.2-1.5-4-1.5h-3.3q-1.6 0-2.4 0.3-0.7 0.2-1 1-0.2 0.7-0.2 2.4v8.4h3.7q1.5 0 2.2-0.7 0.8-0.8 1.1-1.6 0.2-0.9 0.4-2.3h1.1q-0.2 1.6-0.2 3.4v1.7q0 1.7 0.3 5h-1q-0.3-2.2-1.1-3.4-0.7-1.2-2.8-1.2h-3.7v8.6q0 1.7 0.2 2.4 0.3 0.8 1 1.1 0.8 0.2 2.4 0.2h3.3q2.3 0 3.6-0.7 1.3-0.7 1.9-2.3 0.7-1.6 1-4.5h1q-0.1 1.2-0.1 3.2zm37.9 1.6q1.1 2.7 3.1 2.8v0.9q-1.8-0.1-4.8-0.1-3.9 0-5.7 0.1v-0.9q1.7-0.1 2.4-0.4 0.7-0.3 0.7-1.2 0-0.8-0.5-2.1l-2.7-7.4h-10.9l-1.9 4.7q-0.9 2.5-0.9 3.7 0 1.4 1 2.1 1 0.6 2.9 0.6v0.9q-2.5-0.1-5.1-0.1-2.1 0-3.4 0.1v-0.9q2.2-0.5 3.5-3.9l10.6-27.3h0.7zm-18-9.1h10.1l-5-13.5zm36.7-15q2.3 0 3.8 0.7 1.5 0.8 3.2 2.2 0.5 0.4 0.8 0.4 0.9 0 1.2-2.7h1q-0.1 2.7-0.1 9.5h-1.1q-0.4-2.4-0.9-3.5-0.4-1.1-1.3-2.3-1.3-1.7-3-2.5-1.8-0.9-3.7-0.9-2.7 0-4.7 1.6-1.9 1.6-3 4.7-1.1 3-1.1 7.2 0 4.2 1.2 7.2 1.2 3 3.2 4.6 2.1 1.5 4.7 1.5 2 0 3.8-0.9 1.8-0.9 3.1-2.5 0.8-1.2 1.2-2.5 0.5-1.3 0.8-3.7h1.1q0 7 0.2 9.9h-1.1q-0.1-1.4-0.4-2.1-0.3-0.6-0.7-0.6-0.4 0-0.9 0.4-1.7 1.4-3.3 2.2-1.7 0.7-4 0.7-4 0-7-1.6-3-1.7-4.7-4.8-1.7-3.2-1.7-7.6 0-4.4 1.7-7.6 1.8-3.4 4.8-5.2 3.1-1.8 6.9-1.8zm37.9 24.2q1.2 2.8 3.1 2.9v0.9q-1.8-0.2-4.8-0.2-3.9 0-5.8 0.2v-0.9q1.7-0.1 2.5-0.5 0.8-0.3 0.8-1.2 0-0.7-0.7-2.1l-2.3-5.1h-10.9l-1.5 3.3q-0.8 1.8-0.8 2.9 0 1.2 0.8 1.9 0.9 0.6 2.7 0.8v0.9q-1.3-0.2-4.1-0.2-2.7 0-3.9 0.2v-0.9q1.2-0.3 2.1-1.4 0.8-1.1 1.6-2.8l9.9-22.5h0.8zm-17.8-6.9h10.2l-5-11.5zm34.8-16.6q7.1 0 10.6 3.4 3.5 3.4 3.5 9.9 0 4.2-1.7 7.4-1.7 3.2-5 4.9-3.2 1.7-7.8 1.7h-2.6q-2.5-0.1-3.7-0.1-3.7 0-5.5 0.1v-0.9q1.6-0.1 2.3-0.3 0.8-0.3 1-1.1 0.3-0.7 0.3-2.4v-17.9q0-1.7-0.3-2.4-0.2-0.8-1-1.1-0.7-0.2-2.3-0.3v-0.9q1.5 0.1 4.3 0.1h3.8q3.1-0.1 4.1-0.1zm-1.1 0.8q-1.4 0-2.1 0.3-0.7 0.3-0.9 1.1-0.3 0.8-0.3 2.5v18q0 1.6 0.3 2.4 0.2 0.8 0.9 1.1 0.7 0.3 2.2 0.3 4.1 0 6.4-1.4 2.3-1.5 3.3-4.3 0.9-2.9 0.9-7.3 0-6.6-2.4-9.7-2.4-3-8.3-3zm41.3 21.2q0 2.4 0.3 5.3-2.9-0.1-9.8-0.1-8.3 0-12.6 0.1v-0.9q1.6-0.1 2.3-0.3 0.8-0.3 1.1-1.1 0.2-0.7 0.2-2.4v-17.9q0-1.7-0.2-2.4-0.3-0.8-1.1-1.1-0.7-0.2-2.3-0.3v-0.9q4.3 0.1 12.6 0.1 6.3 0 8.9-0.1-0.3 2.7-0.3 4.8 0 1.8 0.2 2.8h-1.1q-0.3-3.7-1.6-5.1-1.2-1.5-4-1.5h-3.2q-1.7 0-2.4 0.3-0.7 0.2-1 1-0.3 0.7-0.3 2.4v8.4h3.7q1.5 0 2.3-0.7 0.7-0.8 1-1.6 0.3-0.9 0.5-2.3h1q-0.1 1.6-0.1 3.4v1.7q0 1.7 0.3 5h-1.1q-0.3-2.2-1-3.4-0.8-1.2-2.9-1.2h-3.7v8.6q0 1.7 0.3 2.4 0.3 0.8 1 1.1 0.7 0.2 2.4 0.2h3.2q2.3 0 3.6-0.7 1.3-0.7 2-2.3 0.7-1.6 0.9-4.5h1.1q-0.2 1.2-0.2 3.2zm39.2-21.1q-1.6 0.1-2.4 0.3-0.7 0.3-1 1.1-0.3 0.7-0.3 2.4v17.9q0 1.7 0.3 2.4 0.3 0.8 1 1.1 0.8 0.2 2.4 0.3v0.9q-2.1-0.1-5.7-0.1-3.9 0-5.8 0.1v-0.9q1.6-0.1 2.3-0.3 0.8-0.3 1.1-1.1 0.2-0.7 0.2-2.4v-19.8l-10.8 24.8h-0.7l-10.5-24.7v19.2q0 1.8 0.3 2.6 0.3 0.9 1.2 1.3 0.8 0.3 2.6 0.4v0.9q-1.6-0.1-4.6-0.1-2.7 0-4.1 0.1v-0.9q1.5-0.1 2.3-0.4 0.8-0.4 1-1.3 0.3-0.9 0.3-2.6v-17.4q0-1.7-0.3-2.4-0.2-0.8-1-1.1-0.7-0.2-2.3-0.3v-0.9q1.4 0.1 4.1 0.1 2.2 0 3.9-0.1l9 21.9 9.6-21.8h2.2q3.6 0 5.7-0.1zm15.2-0.9v0.9q-1.6 0.1-2.4 0.3-0.7 0.3-0.9 1.1-0.3 0.7-0.3 2.4v17.9q0 1.7 0.3 2.4 0.2 0.8 0.9 1.1 0.8 0.2 2.4 0.3v0.9q-2-0.1-5.7-0.1-3.9 0-5.7 0.1v-0.9q1.6-0.1 2.3-0.3 0.8-0.3 1-1.1 0.3-0.7 0.3-2.4v-17.9q0-1.7-0.3-2.4-0.2-0.8-1-1.1-0.7-0.2-2.3-0.3v-0.9q1.8 0.1 5.7 0.1 3.6 0 5.7-0.1zm17.4-0.7q2.2 0 3.7 0.8 1.5 0.7 3.2 2.2 0.5 0.4 0.8 0.4 0.9 0 1.2-2.7h1q-0.1 2.7-0.1 9.4h-1.1q-0.4-2.3-0.9-3.4-0.4-1.2-1.3-2.3-1.3-1.7-3-2.6-1.8-0.9-3.7-0.9-2.7 0-4.7 1.7-1.9 1.6-3 4.6-1.1 3.1-1.1 7.2 0 4.3 1.2 7.3 1.2 3 3.3 4.5 2 1.6 4.6 1.6 2 0 3.8-0.9 1.8-0.9 3.1-2.6 0.8-1.1 1.2-2.4 0.5-1.3 0.8-3.8h1.1q0 7.1 0.2 9.9h-1.1q-0.1-1.4-0.4-2-0.3-0.7-0.7-0.7-0.4 0-0.9 0.4-1.7 1.5-3.3 2.2-1.7 0.8-4 0.8-4 0-7-1.7-3-1.6-4.7-4.8-1.7-3.2-1.7-7.6 0-4.3 1.8-7.6 1.7-3.3 4.7-5.1 3.1-1.9 7-1.9zm37.4 15.2h-3.4v8.1q0 1.7 0.3 2.4 0.4 0.8 1.3 1.1 0.9 0.2 2.9 0.3v0.9q-2.3-0.1-6.6-0.1-3.9 0-5.8 0.1v-0.9q1.7-0.1 2.4-0.3 0.7-0.3 1-1.1 0.3-0.7 0.3-2.4v-22.4q0-1.7-0.3-2.4-0.3-0.8-1-1.1-0.7-0.2-2.4-0.3v-0.9q1.9 0.1 5.5 0.1h4.9q0.8-0.1 1.9-0.1 5.3 0 8.1 2.5 2.8 2.3 2.8 6.4 0 2.5-1.2 4.8-1 2.2-3.7 3.7-2.6 1.6-7 1.6zm-0.1-18.1q-1.4 0-2.1 0.3-0.7 0.3-1 1.1-0.2 0.8-0.2 2.4v13.4h3q4.4 0 6.1-2.4 1.7-2.4 1.7-6.3 0-4.4-1.8-6.5-1.7-2-5.7-2zm26.6 3.6v0.9q-1.6 0.1-2.3 0.3-0.8 0.3-1 1.1-0.3 0.7-0.3 2.4v17.9q0 1.7 0.3 2.4 0.2 0.8 1 1.1 0.7 0.2 2.3 0.2h2.9q3.1 0 4.8-1.8 1.7-1.9 2.1-6.2h1q-0.1 1.4-0.1 3.7 0 2.4 0.3 5.3-2.9-0.1-9.8-0.1-8.4 0-12.6 0.1v-0.9q1.6-0.1 2.3-0.3 0.8-0.3 1-1.1 0.3-0.7 0.3-2.4v-17.9q0-1.7-0.3-2.4-0.2-0.8-1-1.1-0.7-0.2-2.3-0.3v-0.9q1.9 0.1 5.7 0.1 3.6 0 5.7-0.1zm37.2 23.6q1.2 2.7 3.1 2.8v0.9q-1.8-0.1-4.8-0.1-3.9 0-5.8 0.1v-0.9q1.7-0.1 2.5-0.4 0.8-0.4 0.8-1.2 0-0.7-0.6-2.1l-2.3-5.2h-11l-1.5 3.4q-0.8 1.8-0.8 2.9 0 1.2 0.8 1.8 0.9 0.7 2.7 0.8v0.9q-1.3-0.1-4.1-0.1-2.7 0-3.9 0.1v-0.9q1.2-0.3 2.1-1.3 0.9-1.1 1.6-2.8l10-22.5h0.7zm-17.7-7h10.2l-5.1-11.4zm49.9-16.7v0.9q-1.5 0.1-2.3 0.5-0.8 0.4-1 1.3-0.3 0.9-0.3 2.6v22.3h-1l-18-24.9v19.5q0 1.7 0.2 2.6 0.3 0.8 1.2 1.3 0.8 0.3 2.6 0.4v0.9q-1.6-0.1-4.5-0.1-2.7 0-4.2 0.1v-0.9q1.5-0.1 2.3-0.4 0.8-0.5 1-1.3 0.3-0.9 0.3-2.6v-17.4q0-1.7-0.3-2.5-0.2-0.7-1-1-0.7-0.3-2.3-0.4v-0.9q1.5 0.2 4.2 0.2 2.4 0 4.1-0.2l14.4 20v-14.7q0-1.8-0.4-2.6-0.2-0.9-1.1-1.3-0.8-0.4-2.6-0.5v-0.9q1.6 0.2 4.5 0.2 2.7 0 4.2-0.2zm12.7-0.6q2 0 3.1 0.5 1.2 0.4 2.4 1.2 1 0.6 1.5 0.6 0.4 0 0.7-0.4 0.2-0.5 0.3-1.6h1.1q-0.3 2.4-0.3 8.3h-1q-0.3-3.2-2.1-5.5-1.8-2.2-5.3-2.2-2.4 0-3.9 1.2-1.6 1.3-1.6 3.2 0 1.4 0.7 2.5 0.7 1 1.8 1.8 1.1 0.7 3.2 1.8l1.4 0.8q2.8 1.4 4.5 2.6 1.7 1.2 2.7 2.7 1.1 1.5 1.1 3.5 0 3.6-2.7 5.7-2.6 1.9-6.5 1.9-2.2 0-3.6-0.4-1.3-0.5-2.6-1.2-1-0.7-1.5-0.7-0.4 0-0.7 0.5-0.2 0.5-0.3 1.5h-1.1q0.2-2.2 0.2-9.9h1.1q0.3 4.2 2.2 6.8 1.9 2.5 5.9 2.5 2.3 0 3.9-1.2 1.7-1.3 1.7-3.9 0-1.4-0.9-2.6-0.8-1.1-2.3-2-1.4-0.9-4-2.3-3.7-1.9-5.6-3.8-1.9-1.9-1.9-4.9 0-3.3 2.4-5.1 2.5-1.9 6-1.9zm58.6 4.8q0 2.1-1.2 3.4-1 1.4-3.3 2.4l-2.4 0.9-2.3 0.9q2.5 0.7 3.6 2.4 1.2 1.6 1.2 3.5 0 2.8-1.7 5.2-1.6 2.3-4.8 3.7-3.1 1.4-7.4 1.4-3.9 0-7.1-1.1-3.2-1.2-5.1-3.3-1.9-2.1-1.9-5 0-2.8 1.3-4.7 1.3-2 3-3 1.7-1 3.1-1.4-2.2-0.7-3.4-2-1.2-1.2-1.2-2.9 0-2.2 2.1-3.7 2-1.5 5.6-1.5 2.9 0 4.6 1.4 0.8 0.6 1.2 1.5 0.5 0.8 0.5 1.6 0 1-0.8 1.7-0.7 0.7-1.7 0.7-1 0-1.7-0.6-0.7-0.6-0.7-1.7 0-1 0.7-1.7 0.7-0.7 1.7-0.8-0.2-0.6-1.1-1-0.9-0.4-2.2-0.4-2.3 0-3.8 1.3-1.5 1.3-1.5 3.3 0 1.6 0.5 2.6 0.5 1 1.8 1.9 1.5-0.2 2.8-0.2 0.8 0 1.3 0.3 0.5 0.2 0.5 0.7 0 0.8-1.3 0.8-0.7 0-1.5-0.2-0.7-0.3-1.8-0.7-4.9 1.6-4.9 6.8 0 2.6 1.5 4.4 1.5 1.9 4.1 2.9 2.7 1 6 1 3.7 0 6.4-1 2.8-0.9 4.3-2.6 1.5-1.7 1.5-3.9 0-1.6-0.9-3.1-0.9-1.6-3.7-2.3l-4.6 1.8q-2 0.8-3.2 1.7-1.2 0.9-1.2 2.3 0 1.4 1 2.3 0.9 0.8 2.2 0.8 1 0 1.8-0.3 0.8-0.3 0.9-0.7-0.9-0.2-1.5-0.7-0.6-0.6-0.6-1.6 0-1.1 0.7-1.7 0.7-0.7 1.8-0.7 1.1 0 1.7 0.7 0.7 0.7 0.7 1.8 0 1.8-1.7 2.8-1.7 1-3.6 1-2 0-3.2-1-1.1-1.1-1.1-3.1 0-4.6 6.2-6.8l1.6-0.6q5.3-1.8 7.6-2.9 1.9-1 2.6-1.9 0.8-0.9 0.8-2 0-1.4-1.2-2.3-1.1-1-2.8-1-0.5 0-0.8 0.2-0.3 0.1-0.4 0.3 0.6 0.3 0.9 0.9 0.3 0.6 0.3 1.2 0 0.9-0.7 1.5-0.7 0.7-1.7 0.7-1.1 0-1.8-0.6-0.7-0.6-0.7-1.6 0-1.7 1.5-2.4 1.5-0.8 3.6-0.8 2.1 0 3.5 1.3 1.5 1.3 1.5 3.5zm29-9.3q2.7 0 4.6 0.8 1.9 0.7 3.7 2.1 0.5 0.4 0.9 0.4 0.9 0 1.1-2.7h1.1q-0.2 3-0.2 10.4h-1q-0.5-2.9-0.9-4.2-0.4-1.3-1.4-2.5-1.3-1.7-3.5-2.6-2-0.9-4.5-0.9-2.9 0-5.1 2-2.1 1.9-3.4 5.5-1.2 3.5-1.2 8.4 0 4.9 1.3 8.4 1.3 3.5 3.6 5.3 2.4 1.8 5.3 1.8 2.2 0 4.4-0.8 2.1-0.9 3.3-2.6 0.9-1.2 1.3-2.7 0.4-1.4 0.8-4.4h1q0 7.7 0.2 10.8h-1.1q-0.1-1.4-0.4-2-0.2-0.7-0.6-0.7-0.4 0-1 0.4-2 1.4-3.9 2.2-1.8 0.7-4.4 0.7-4.3 0-7.5-1.9-3.2-1.9-5-5.6-1.8-3.7-1.8-8.8 0-4.9 1.8-8.7 1.9-3.9 5.1-6 3.3-2.1 7.4-2.1zm30.5 4.5q4.2 0 7.3 1.7 3.1 1.6 4.9 4.8 1.7 3.1 1.7 7.6 0 4.3-1.8 7.6-1.8 3.3-4.9 5.1-3.2 1.8-7.2 1.8-4.1 0-7.3-1.6-3.1-1.7-4.8-4.8-1.7-3.2-1.7-7.6 0-4.3 1.7-7.6 1.8-3.3 5-5.1 3.1-1.9 7.1-1.9zm-0.1 0.8q-2.8 0-4.9 1.8-2.1 1.7-3.2 4.8-1.1 3.1-1.1 7 0 4 1.2 7.1 1.3 3 3.5 4.7 2.1 1.6 4.8 1.6 2.7 0 4.8-1.7 2.1-1.7 3.2-4.8 1.2-3.1 1.2-7.1 0-4-1.3-7-1.3-3.1-3.4-4.7-2.2-1.7-4.8-1.7zm44.6-0.2v0.9q-1.6 0.1-2.4 0.5-0.7 0.4-1 1.3-0.3 0.9-0.3 2.6v9.9q0 3.1-0.4 5.3-0.4 2.2-1.4 3.8-1.1 1.7-3.2 2.7-2 1-4.6 1-4.6 0-7.1-1.9-2-1.8-2.7-4.1-0.7-2.2-0.7-6.7v-10.5q0-1.7-0.2-2.5-0.3-0.7-1.1-1-0.7-0.3-2.3-0.4v-0.9q1.9 0.2 5.8 0.2 3.6 0 5.7-0.2v0.9q-1.6 0.1-2.4 0.4-0.7 0.3-1 1-0.3 0.8-0.3 2.5v11.3q0 3.3 0.5 5.5 0.4 2.2 1.9 3.6 1.5 1.3 4.3 1.3 4.5 0 6.3-2.9 1.9-2.8 1.9-7.9v-10.4q0-2.5-0.9-3.4-0.9-0.9-3.2-1v-0.9q1.6 0.2 4.6 0.2 2.7 0 4.2-0.2zm28.9 24.9l0.6 0.6q-0.8 1.2-2 1.9-1 0.6-2.6 0.6-3.7 0-4.6-3.4l-1.4-5.6q-0.6-2.5-1.9-3.4-1.2-0.8-3.6-0.8h-2.6v7.8q0 1.7 0.3 2.5 0.2 0.8 1 1 0.7 0.3 2.4 0.4v0.9q-2.1-0.1-5.8-0.1-3.8 0-5.7 0.1v-0.9q1.6-0.1 2.3-0.4 0.8-0.2 1.1-1 0.2-0.8 0.2-2.5v-17.8q0-1.7-0.2-2.5-0.3-0.7-1.1-1-0.7-0.3-2.3-0.4v-0.9q1.9 0.2 5.5 0.2l4.6-0.1q0.7 0 1.7 0 5.1 0 7.7 1.9 2.7 1.9 2.7 4.9 0 2.6-2.1 4.8-2.1 2.1-6.8 2.7 0.9 0.1 1.5 0.2 2.4 0.3 3.8 1.4 1.4 1.1 1.9 3.5l1 4.1q0.4 1.6 0.8 2.2 0.4 0.7 1.1 0.7 1.1 0 2.5-1.6zm-15.2-24q-1.2 0-1.9 0.4-0.5 0.3-0.8 1.1-0.2 0.8-0.2 2.4v9.1h3q4 0 5.4-1.7 1.5-1.7 1.5-4.8 0-3.3-1.7-4.8-1.6-1.7-5.3-1.7zm27-1.5q2 0 3.1 0.5 1.2 0.4 2.4 1.2 1 0.6 1.5 0.6 0.4 0 0.6-0.4 0.3-0.5 0.4-1.6h1q-0.2 2.4-0.2 8.3h-1q-0.3-3.2-2.1-5.5-1.8-2.2-5.3-2.2-2.4 0-4 1.2-1.5 1.3-1.5 3.2 0 1.4 0.7 2.5 0.7 1 1.8 1.8 1.1 0.7 3.1 1.8l1.5 0.8q2.8 1.4 4.5 2.6 1.7 1.2 2.7 2.7 1 1.5 1 3.5 0 3.6-2.6 5.7-2.6 1.9-6.6 1.9-2.1 0-3.5-0.4-1.4-0.5-2.6-1.2-1-0.7-1.6-0.7-0.4 0-0.6 0.5-0.2 0.5-0.4 1.5h-1q0.2-2.2 0.2-9.9h1q0.3 4.2 2.3 6.8 1.9 2.5 5.9 2.5 2.3 0 3.9-1.2 1.6-1.3 1.6-3.9 0-1.4-0.8-2.6-0.9-1.1-2.3-2-1.4-0.9-4-2.3-3.7-1.9-5.6-3.8-2-1.9-2-4.9 0-3.3 2.5-5.1 2.4-1.9 6-1.9zm36.6 22.7q0 2.3 0.3 5.3-2.9-0.1-9.9-0.1-8.3 0-12.6 0.1v-0.9q1.7-0.1 2.4-0.4 0.7-0.2 1-1 0.3-0.8 0.3-2.5v-17.8q0-1.7-0.3-2.5-0.3-0.7-1-1-0.7-0.3-2.4-0.4v-0.9q4.3 0.2 12.6 0.2 6.3 0 9-0.2-0.3 2.7-0.3 4.9 0 1.8 0.1 2.8h-1q-0.3-3.7-1.6-5.1-1.2-1.5-4-1.5h-3.3q-1.6 0-2.4 0.2-0.7 0.3-1 1-0.2 0.8-0.2 2.5v8.4h3.7q1.4 0 2.2-0.7 0.8-0.8 1-1.7 0.3-0.9 0.5-2.2h1.1q-0.2 1.5-0.2 3.3v1.7q0 1.8 0.3 5.1h-1q-0.3-2.2-1.1-3.4-0.7-1.2-2.8-1.2h-3.7v8.5q0 1.7 0.2 2.5 0.3 0.8 1 1 0.8 0.3 2.4 0.3h3.3q2.2 0 3.5-0.8 1.4-0.7 2-2.2 0.7-1.7 1-4.5h1q-0.1 1.2-0.1 3.2zm27.1-7.6h-3.5v8.1q0 1.7 0.4 2.5 0.4 0.8 1.3 1 0.9 0.3 2.9 0.4v0.9q-2.4-0.1-6.6-0.1-3.9 0-5.8 0.1v-0.9q1.6-0.1 2.4-0.4 0.7-0.2 1-1 0.3-0.8 0.3-2.5v-22.3q0-1.7-0.3-2.5-0.3-0.7-1-1-0.8-0.3-2.4-0.4v-0.9q1.9 0.2 5.5 0.2l4.9-0.1q0.8 0 1.9 0 5.3 0 8.1 2.4 2.7 2.4 2.7 6.5 0 2.4-1.1 4.7-1.1 2.3-3.7 3.8-2.6 1.5-7 1.5zm-0.1-18.1q-1.4 0-2.1 0.4-0.7 0.3-1 1.1-0.3 0.8-0.3 2.4v13.3h3.1q4.4 0 6-2.3 1.7-2.4 1.7-6.4 0-4.3-1.7-6.4-1.7-2.1-5.7-2.1zm41.1 28.5l0.6 0.6q-0.9 1.2-2 1.9-1.1 0.6-2.6 0.6-3.8 0-4.6-3.4l-1.4-5.6q-0.7-2.5-1.9-3.4-1.2-0.8-3.7-0.8h-2.5v7.8q0 1.7 0.2 2.5 0.3 0.8 1 1 0.8 0.3 2.4 0.4v0.9q-2.1-0.1-5.7-0.1-3.9 0-5.8 0.1v-0.9q1.7-0.1 2.4-0.4 0.7-0.2 1-1 0.3-0.8 0.3-2.5v-17.8q0-1.7-0.3-2.5-0.3-0.7-1-1-0.7-0.3-2.4-0.4v-0.9q1.9 0.2 5.5 0.2l4.6-0.1q0.8 0 1.8 0 5 0 7.7 1.9 2.7 1.9 2.7 4.9 0 2.6-2.1 4.7-2.1 2.2-6.9 2.8 0.9 0.1 1.5 0.2 2.4 0.3 3.8 1.4 1.4 1.1 2 3.5l1 4.1q0.4 1.5 0.8 2.2 0.4 0.7 1.1 0.7 1.1 0 2.5-1.6zm-15.3-24q-1.2 0-1.8 0.4-0.6 0.3-0.8 1.1-0.2 0.8-0.2 2.4v9.1h3q3.9 0 5.4-1.7 1.5-1.7 1.5-4.8 0-3.3-1.7-4.8-1.6-1.7-5.4-1.7zm31.6-1.5q4.1 0 7.2 1.7 3.2 1.6 4.9 4.8 1.7 3.1 1.7 7.6 0 4.3-1.8 7.6-1.7 3.3-4.9 5.1-3.1 1.8-7.2 1.8-4.1 0-7.2-1.6-3.1-1.7-4.9-4.8-1.7-3.2-1.7-7.6 0-4.3 1.8-7.6 1.8-3.3 4.9-5.1 3.2-1.9 7.2-1.9zm-0.2 0.8q-2.7 0-4.8 1.8-2.1 1.7-3.2 4.8-1.2 3.1-1.2 7 0 4 1.3 7.1 1.3 3 3.4 4.7 2.2 1.6 4.8 1.6 2.8 0 4.8-1.7 2.2-1.7 3.3-4.8 1.1-3.1 1.1-7.1 0-4-1.3-7-1.2-3.1-3.4-4.7-2.1-1.7-4.8-1.7zm32.2-0.8q2.6 0 4.1 0.7 1.6 0.8 3.3 2.2 0.6 0.5 0.9 0.5 0.9 0 1.1-2.8h1.1q-0.2 2.6-0.2 9h-1q-0.4-1.7-0.9-3-0.5-1.3-1.4-2.3-1.5-1.7-3.1-2.6-1.6-0.9-4-0.9-2.7 0-4.6 1.7-2 1.6-3.1 4.7-1.1 3-1.1 7.2 0 6.8 2.5 10.1 2.6 3.2 7.6 3.2 1.9 0 3.4-0.3 0.8-0.2 1.1-0.6 0.3-0.4 0.3-1.1v-3.9q0-1.9-0.3-2.8-0.4-0.8-1.3-1.1-0.9-0.3-2.9-0.4v-0.9q2.4 0.1 6.3 0.1 3.1 0 4.7-0.1v0.9q-1 0.1-1.5 0.3-0.4 0.3-0.6 1.1-0.2 0.7-0.2 2.4v6.7h-0.9q-0.1-1.1-0.7-1.1-0.2 0-1 0.3-0.7 0.3-1 0.4-2.8 1-5.8 1-6.8 0-10.5-3.6-3.7-3.6-3.7-10.1 0-4.5 1.7-7.9 1.7-3.3 4.8-5.1 3-1.9 6.9-1.9zm41.7 25.5l0.7 0.6q-0.9 1.2-2 1.9-1.1 0.6-2.6 0.6-3.8 0-4.6-3.4l-1.4-5.6q-0.7-2.5-1.9-3.4-1.2-0.8-3.7-0.8h-2.5v7.8q0 1.7 0.2 2.5 0.3 0.8 1 1 0.8 0.3 2.4 0.4v0.9q-2.1-0.1-5.7-0.1-3.9 0-5.8 0.1v-0.9q1.6-0.1 2.4-0.4 0.7-0.2 1-1 0.3-0.8 0.3-2.5v-17.8q0-1.7-0.3-2.5-0.3-0.7-1-1-0.8-0.3-2.4-0.4v-0.9q1.9 0.2 5.5 0.2l4.6-0.1q0.8 0 1.8 0 5 0 7.7 1.9 2.7 1.9 2.7 4.9 0 2.6-2.2 4.7-2 2.2-6.8 2.8 0.9 0.1 1.5 0.2 2.4 0.3 3.8 1.4 1.4 1.1 2 3.5l1 4.1q0.3 1.5 0.7 2.2 0.5 0.7 1.2 0.7 1.1 0 2.4-1.6zm-15.2-24q-1.2 0-1.8 0.4-0.6 0.3-0.8 1.1-0.2 0.8-0.2 2.4v9.1h3q3.9 0 5.4-1.7 1.5-1.7 1.5-4.8 0-3.3-1.7-4.8-1.6-1.7-5.4-1.7zm40.3 22.7q1.2 2.8 3.1 2.9v0.9q-1.8-0.1-4.8-0.1-3.9 0-5.8 0.1v-0.9q1.7-0.1 2.4-0.5 0.8-0.3 0.8-1.2 0-0.7-0.6-2.1l-2.3-5.1h-10.9l-1.6 3.4q-0.7 1.7-0.7 2.8 0 1.2 0.8 1.9 0.8 0.6 2.7 0.8v0.9q-1.4-0.1-4.1-0.1-2.7 0-3.9 0.1v-0.9q1.2-0.3 2.1-1.4 0.8-1 1.6-2.8l9.9-22.5h0.7zm-17.7-6.9h10.2l-5.1-11.4zm57.1-15.8q-1.6 0.1-2.3 0.4-0.8 0.2-1 1-0.3 0.8-0.3 2.5v17.8q0 1.7 0.3 2.5 0.2 0.7 1 1 0.7 0.3 2.3 0.4v0.9q-2-0.2-5.7-0.2-3.8 0-5.7 0.2v-0.9q1.6-0.1 2.3-0.4 0.8-0.3 1-1 0.3-0.8 0.3-2.5v-19.8l-10.8 24.8h-0.8l-10.4-24.7v19.2q0 1.8 0.3 2.7 0.3 0.8 1.1 1.2 0.9 0.4 2.7 0.5v0.9q-1.6-0.2-4.6-0.2-2.7 0-4.2 0.2v-0.9q1.6-0.1 2.4-0.5 0.7-0.4 1-1.2 0.3-0.9 0.3-2.7v-17.3q0-1.7-0.3-2.5-0.3-0.8-1-1-0.8-0.3-2.4-0.4v-0.9q1.5 0.1 4.2 0.1 2.2 0 3.8-0.1l9.1 21.9 9.6-21.8h2.1q3.7 0 5.7-0.1zm13.5-1.5q1.9 0 3.1 0.4 1.1 0.4 2.3 1.2 1 0.7 1.6 0.7 0.4 0 0.6-0.5 0.2-0.5 0.4-1.5h1q-0.2 2.3-0.2 8.3h-1.1q-0.2-3.3-2.1-5.5-1.8-2.3-5.2-2.3-2.4 0-4 1.3-1.5 1.3-1.5 3.2 0 1.4 0.6 2.4 0.8 1.1 1.8 1.8 1.2 0.7 3.2 1.8l1.5 0.8q2.8 1.5 4.4 2.7 1.7 1.2 2.8 2.7 1 1.5 1 3.4 0 3.7-2.6 5.7-2.7 2-6.6 2-2.2 0-3.6-0.5-1.3-0.4-2.6-1.2-1-0.6-1.5-0.6-0.4 0-0.6 0.5-0.3 0.4-0.4 1.5h-1q0.1-2.2 0.1-9.9h1.1q0.3 4.2 2.2 6.7 2 2.6 6 2.6 2.2 0 3.8-1.3 1.7-1.3 1.7-3.8 0-1.5-0.8-2.6-0.9-1.2-2.3-2.1-1.5-0.9-4-2.2-3.7-1.9-5.7-3.8-1.9-1.9-1.9-4.9 0-3.3 2.4-5.2 2.5-1.8 6.1-1.8z"/>
</svg>